<svg width="49" height="49" viewBox="0 0 49 49" fill="none" xmlns="http://www.w3.org/2000/svg">
<path d="M24.4809 3.651C12.6472 3.64622 3.0625 13.2261 3.0625 25.0502C3.0625 34.4004 9.0583 42.3486 17.4084 45.2675C18.5329 45.5498 18.3606 44.7507 18.3606 44.2052V40.4967C11.8672 41.2575 11.604 36.9605 11.1686 36.2427C10.2881 34.7402 8.20654 34.3573 8.82861 33.6396C10.3072 32.8787 11.8146 33.831 13.5611 36.4102C14.8244 38.2812 17.2888 37.9654 18.5377 37.6543C18.8104 36.5298 19.3942 35.5249 20.1981 34.7449C13.4702 33.5391 10.6661 29.4334 10.6661 24.5526C10.6661 22.1839 11.4461 20.0067 12.9773 18.2505C12.0012 15.3555 13.0683 12.8768 13.2118 12.5083C15.992 12.2595 18.8822 14.499 19.1071 14.676C20.6862 14.2501 22.4902 14.0252 24.5096 14.0252C26.5385 14.0252 28.3473 14.2597 29.9407 14.6904C30.4814 14.2788 33.1611 12.3552 35.7451 12.5897C35.8839 12.9581 36.9271 15.3794 36.0083 18.2362C37.5587 19.9971 38.3482 22.1935 38.3482 24.5669C38.3482 29.4574 35.525 33.5678 28.7779 34.7545C29.3558 35.3228 29.8147 36.0006 30.1277 36.7483C30.4408 37.4959 30.6017 38.2985 30.6011 39.109V44.4923C30.6394 44.923 30.6011 45.3489 31.3188 45.3489C39.7934 42.4921 45.8944 34.4865 45.8944 25.055C45.8944 13.2261 36.305 3.651 24.4809 3.651Z" fill="#66FCF1"/>
</svg>
