<svg width="60" height="60" viewBox="0 0 60 60" fill="none" xmlns="http://www.w3.org/2000/svg">
<path d="M49.6699 6.5625H10.3301C8.25 6.5625 6.5625 8.25 6.5625 10.3301V49.6699C6.5625 51.75 8.25 53.4375 10.3301 53.4375H49.6699C51.75 53.4375 53.4375 51.75 53.4375 49.6699V10.3301C53.4375 8.25 51.75 6.5625 49.6699 6.5625ZM49.6699 49.6875C23.4316 49.6816 10.3125 49.6758 10.3125 49.6699C10.3184 23.4316 10.3242 10.3125 10.3301 10.3125C36.5684 10.3184 49.6875 10.3242 49.6875 10.3301C49.6816 36.5684 49.6758 49.6875 49.6699 49.6875ZM13.5117 24.1348H20.4668V46.5059H13.5117V24.1348ZM16.9922 21.0762C19.2129 21.0762 21.0234 19.2715 21.0234 17.0449C21.0234 16.5155 20.9192 15.9913 20.7166 15.5022C20.514 15.0131 20.217 14.5687 19.8427 14.1944C19.4684 13.8201 19.024 13.5231 18.5349 13.3205C18.0458 13.1179 17.5216 13.0137 16.9922 13.0137C16.4628 13.0137 15.9386 13.1179 15.4495 13.3205C14.9604 13.5231 14.516 13.8201 14.1417 14.1944C13.7673 14.5687 13.4704 15.0131 13.2678 15.5022C13.0652 15.9913 12.9609 16.5155 12.9609 17.0449C12.9551 19.2715 14.7598 21.0762 16.9922 21.0762ZM31.7754 35.4375C31.7754 32.5195 32.332 29.6953 35.9473 29.6953C39.5098 29.6953 39.5625 33.0293 39.5625 35.625V46.5059H46.5117V34.2363C46.5117 28.2129 45.2109 23.5781 38.1738 23.5781C34.793 23.5781 32.5254 25.4355 31.5938 27.1934H31.5V24.1348H24.8262V46.5059H31.7754V35.4375Z" fill="#66FCF1"/>
</svg>
