<svg width="37" height="29" viewBox="0 0 37 29" fill="none" xmlns="http://www.w3.org/2000/svg">
<path fill-rule="evenodd" clip-rule="evenodd" d="M5.04688 3.1875C4.10627 3.1875 3.34375 3.95002 3.34375 4.89062V24.1094C3.34375 25.05 4.10627 25.8125 5.04688 25.8125H31.9531C32.8937 25.8125 33.6562 25.05 33.6562 24.1094V4.89062C33.6562 3.95002 32.8937 3.1875 31.9531 3.1875H5.04688ZM0.34375 4.89062C0.34375 2.29316 2.44941 0.1875 5.04688 0.1875H31.9531C34.5506 0.1875 36.6562 2.29316 36.6562 4.89062V24.1094C36.6562 26.7068 34.5506 28.8125 31.9531 28.8125H5.04688C2.44941 28.8125 0.34375 26.7068 0.34375 24.1094V4.89062Z" fill="#66FCF1"/>
<path fill-rule="evenodd" clip-rule="evenodd" d="M7.4583 7.565C7.9669 6.91108 8.90932 6.79328 9.56324 7.30188L18.6831 14.3951L27.8031 7.30188C28.457 6.79328 29.3994 6.91108 29.908 7.565C30.4166 8.21892 30.2988 9.16133 29.6449 9.66994L19.6041 17.4795C19.0624 17.9008 18.3039 17.9008 17.7622 17.4795L7.72142 9.66994C7.06749 9.16133 6.94969 8.21892 7.4583 7.565Z" fill="#66FCF1"/>
</svg>
