<svg width="37" height="35" viewBox="0 0 37 35" fill="none" xmlns="http://www.w3.org/2000/svg">
<path d="M18.484 0.054689C8.58232 0.0506851 0.5625 8.0665 0.5625 17.9602C0.5625 25.7838 5.57939 32.4343 12.5662 34.8767C13.5071 35.1129 13.363 34.4442 13.363 33.9878V30.8848C7.92969 31.5214 7.70947 27.9259 7.34512 27.3253C6.6084 26.0681 4.8667 25.7478 5.38721 25.1472C6.62441 24.5105 7.88564 25.3073 9.34707 27.4654C10.4041 29.031 12.4661 28.7667 13.5111 28.5064C13.7394 27.5655 14.2278 26.7247 14.9005 26.0721C9.271 25.0631 6.92471 21.6277 6.92471 17.5437C6.92471 15.5618 7.57734 13.74 8.85859 12.2706C8.0418 9.84824 8.93467 7.77422 9.05479 7.46592C11.3811 7.25772 13.7994 9.13154 13.9876 9.27969C15.3089 8.92334 16.8184 8.73516 18.508 8.73516C20.2057 8.73516 21.7191 8.93135 23.0524 9.2917C23.5049 8.94736 25.7471 7.33779 27.9092 7.53399C28.0253 7.84229 28.8981 9.86826 28.1294 12.2586C29.4267 13.732 30.0873 15.5698 30.0873 17.5558C30.0873 21.6478 27.725 25.0871 22.0795 26.0801C22.563 26.5556 22.947 27.1227 23.2089 27.7483C23.4708 28.3739 23.6055 29.0454 23.605 29.7236V34.228C23.637 34.5884 23.605 34.9447 24.2056 34.9447C31.2965 32.5544 36.4015 25.8559 36.4015 17.9642C36.4015 8.0665 28.3776 0.054689 18.484 0.054689Z" fill="#66FCF1"/>
</svg>
