<svg width="37" height="37" viewBox="0 0 37 37" fill="none" xmlns="http://www.w3.org/2000/svg">
<path d="M33.2524 0.921875H3.74756C2.1875 0.921875 0.921875 2.1875 0.921875 3.74756V33.2524C0.921875 34.8125 2.1875 36.0781 3.74756 36.0781H33.2524C34.8125 36.0781 36.0781 34.8125 36.0781 33.2524V3.74756C36.0781 2.1875 34.8125 0.921875 33.2524 0.921875ZM33.2524 33.2656C13.5737 33.2612 3.73438 33.2568 3.73438 33.2524C3.73877 13.5737 3.74316 3.73438 3.74756 3.73438C23.4263 3.73877 33.2656 3.74316 33.2656 3.74756C33.2612 23.4263 33.2568 33.2656 33.2524 33.2656ZM6.13379 14.1011H11.3501V30.8794H6.13379V14.1011ZM8.74414 11.8071C10.4097 11.8071 11.7676 10.4536 11.7676 8.78369C11.7676 8.38665 11.6894 7.99349 11.5374 7.62667C11.3855 7.25985 11.1628 6.92655 10.882 6.6458C10.6013 6.36505 10.268 6.14234 9.90116 5.9904C9.53434 5.83846 9.14118 5.76025 8.74414 5.76025C8.3471 5.76025 7.95394 5.83846 7.58712 5.9904C7.2203 6.14234 6.887 6.36505 6.60625 6.6458C6.3255 6.92655 6.10279 7.25985 5.95085 7.62667C5.79891 7.99349 5.7207 8.38665 5.7207 8.78369C5.71631 10.4536 7.06982 11.8071 8.74414 11.8071ZM19.8315 22.5781C19.8315 20.3896 20.249 18.2715 22.9604 18.2715C25.6323 18.2715 25.6719 20.772 25.6719 22.7188V30.8794H30.8838V21.6772C30.8838 17.1597 29.9082 13.6836 24.6304 13.6836C22.0947 13.6836 20.394 15.0767 19.6953 16.395H19.625V14.1011H14.6196V30.8794H19.8315V22.5781Z" fill="#66FCF1"/>
</svg>
