<svg width="181" height="30" viewBox="0 0 181 30" fill="none" xmlns="http://www.w3.org/2000/svg">
<path d="M10.368 24.408L0.12 18.456V15.384L10.368 9.432V13.656L4.752 16.896L10.368 20.16V24.408ZM11.4878 24V20.28L22.5518 6.72H23.8718V10.416L12.8078 24H11.4878ZM169.908 24.456V20.184L175.5 16.944L169.908 13.728V9.48L180.18 15.408V18.504L169.908 24.456Z" fill="#66FCF1"/>
<path d="M32.9618 24V6.696H36.6818V20.256H50.2418V24H32.9618ZM55.0489 24C54.0889 24 53.2649 23.656 52.5769 22.968C51.9049 22.28 51.5689 21.464 51.5689 20.52V10.08H55.2409V19.536C55.2409 20.064 55.2409 20.328 55.2409 20.328C55.2409 20.328 55.5049 20.328 56.0329 20.328H61.2169C61.7449 20.328 62.0089 20.328 62.0089 20.328C62.0089 20.328 62.0089 20.064 62.0089 19.536V10.08H65.6809V20.52C65.6809 21.464 65.3369 22.28 64.6489 22.968C63.9769 23.656 63.1609 24 62.2009 24H55.0489ZM68.2324 24V10.08H71.9044V24H68.2324ZM68.2324 9.216V5.52H71.9044V9.216H68.2324ZM73.9991 24V20.232L82.3751 13.752H73.9991V10.08H88.1111V13.848L79.7351 20.328H88.1111V24H73.9991ZM98.5633 24V6.696H102.283V20.256H115.843V24H98.5633ZM117.146 24V10.08H120.818V24H117.146ZM117.146 9.216V5.52H120.818V9.216H117.146ZM122.679 24V10.08H139.431C140.391 10.08 141.207 10.424 141.879 11.112C142.567 11.8 142.911 12.616 142.911 13.56V24H139.263V14.544C139.263 14.016 139.263 13.752 139.263 13.752C139.263 13.752 138.999 13.752 138.471 13.752H135.447C134.919 13.752 134.655 13.752 134.655 13.752C134.655 13.752 134.655 14.016 134.655 14.544V24H130.959V14.544C130.959 14.016 130.959 13.752 130.959 13.752C130.959 13.752 130.695 13.752 130.167 13.752H127.143C126.615 13.752 126.351 13.752 126.351 13.752C126.351 13.752 126.351 14.016 126.351 14.544V24H122.679ZM148.822 24C147.862 24 147.038 23.656 146.35 22.968C145.678 22.28 145.342 21.464 145.342 20.52V15.192H155.782V14.544C155.782 14.016 155.782 13.752 155.782 13.752C155.782 13.752 155.518 13.752 154.99 13.752H145.342V10.08H155.974C156.934 10.08 157.75 10.424 158.422 11.112C159.11 11.8 159.454 12.616 159.454 13.56V24H148.822ZM149.806 20.328H155.782V18.408H149.014V19.536C149.014 20.064 149.014 20.328 149.014 20.328C149.014 20.328 149.278 20.328 149.806 20.328Z" fill="white"/>
</svg>
