<svg width="68" height="60" viewBox="0 0 68 60" fill="none" xmlns="http://www.w3.org/2000/svg">
<g clip-path="url(#clip0)">
<path d="M55.3903 19.4274C54.6733 19.1815 53.9503 18.9536 53.2218 18.744C53.3442 18.244 53.4568 17.7501 53.5568 17.2648C55.1984 9.29613 54.1253 2.87639 50.4597 0.762708C46.9453 -1.26361 41.1976 0.849287 35.3929 5.90113C34.8208 6.3999 34.2614 6.91305 33.7153 7.44008C33.3496 7.08962 32.9776 6.74596 32.5992 6.40929C26.5155 1.00771 20.4176 -1.26887 16.7561 0.850866C13.2447 2.8835 12.205 8.9185 13.6829 16.4706C13.8299 17.2186 13.9959 17.9627 14.1808 18.7022C13.3176 18.9474 12.4847 19.2085 11.6876 19.4864C4.555 21.9732 0 25.8703 0 29.9127C0 34.0877 4.89 38.2753 12.3189 40.8145C12.9212 41.0196 13.5285 41.2095 14.1403 41.3843C13.9416 42.1808 13.7652 42.9827 13.6113 43.789C12.2024 51.2101 13.3026 57.1024 16.8045 59.1222C20.4213 61.208 26.4918 59.0643 32.4026 53.8972C32.8819 53.4771 33.3507 53.0451 33.8084 52.6017C34.3999 53.1723 35.0071 53.7264 35.6295 54.2632C41.3553 59.1901 47.01 61.1795 50.5084 59.1543C54.1218 57.0624 55.2963 50.7324 53.7716 43.0311C53.6515 42.4278 53.5168 41.8274 53.3676 41.2306C53.7939 41.1043 54.2124 40.9743 54.6203 40.839C62.3434 38.2803 67.3684 34.1435 67.3684 29.9127C67.3684 25.8556 62.6663 21.9322 55.3903 19.4274ZM53.7153 38.1074C53.3468 38.2293 52.9689 38.3469 52.5837 38.4614C51.7311 35.7622 50.5805 32.8922 49.1724 29.9267C50.5161 27.0319 51.6224 24.1985 52.4511 21.5169C53.1403 21.7164 53.8089 21.9267 54.4537 22.1485C60.6879 24.2948 64.4905 27.4677 64.4905 29.9127C64.4905 32.5169 60.3837 35.8977 53.7153 38.1074ZM50.9484 43.5901C51.6226 46.9953 51.7187 50.0743 51.2721 52.4814C50.8711 54.6443 50.0642 56.0861 49.0663 56.6638C46.9434 57.8927 42.4032 56.2953 37.5066 52.0817C36.9277 51.5825 36.3629 51.0674 35.8126 50.5369C37.7111 48.4609 39.6082 46.0474 41.4597 43.3669C44.7166 43.078 47.7934 42.6053 50.5837 41.9603C50.7211 42.5148 50.8432 43.0585 50.9484 43.5901ZM22.9674 56.4514C20.8932 57.1838 19.2411 57.2048 18.2424 56.629C16.1174 55.4035 15.2339 50.6722 16.4389 44.3259C16.5822 43.5759 16.7462 42.8301 16.9308 42.0893C19.6903 42.6998 22.7447 43.1388 26.0092 43.4035C27.8734 46.0264 29.8253 48.4372 31.7924 50.5482C31.3743 50.9527 30.9464 51.3469 30.5089 51.7303C27.895 54.0151 25.2758 55.6361 22.9674 56.4514ZM13.25 38.0914C9.965 36.9685 7.25211 35.5093 5.39263 33.9169C3.72158 32.4861 2.87816 31.0653 2.87816 29.9127C2.87816 27.4595 6.53526 24.3306 12.635 22.204C13.3753 21.9461 14.15 21.7027 14.9539 21.4743C15.7971 24.2164 16.9029 27.0835 18.2374 29.9827C16.8855 32.9248 15.7639 35.8377 14.9126 38.6122C14.3542 38.4522 13.7999 38.2786 13.25 38.0914ZM16.5074 15.9177C15.2413 9.44744 16.0821 4.56665 18.1982 3.34165C20.4518 2.03692 25.4355 3.89718 30.6884 8.56139C31.031 8.86623 31.3679 9.17724 31.6992 9.49429C29.7418 11.5961 27.8079 13.989 25.9603 16.5964C22.7918 16.8901 19.7589 17.3617 16.9705 17.9935C16.7987 17.3057 16.6443 16.6136 16.5074 15.918V15.9177ZM45.5671 23.0935C44.9085 21.9558 44.2254 20.8325 43.5184 19.7243C45.6679 19.9961 47.7274 20.3569 49.6613 20.798C49.0808 22.659 48.3571 24.6045 47.5053 26.5993C46.8826 25.4179 46.2364 24.2491 45.5671 23.0935ZM33.7166 11.5511C35.0439 12.9893 36.3734 14.5948 37.6811 16.3369C35.0284 16.2116 32.3714 16.2111 29.7187 16.3353C31.0276 14.6093 32.3684 13.0059 33.7166 11.5511ZM21.79 23.1132C21.129 24.2595 20.4949 25.4211 19.8882 26.5969C19.0503 24.6093 18.3332 22.6548 17.7476 20.7674C19.6697 20.3374 21.7195 19.9859 23.8553 19.719C23.1404 20.834 22.4518 21.9656 21.79 23.113V23.1132ZM23.9166 40.3111C21.71 40.0648 19.6295 39.7314 17.7079 39.313C18.3026 37.3919 19.0355 35.3959 19.8916 33.3656C20.5007 34.5423 21.1375 35.7046 21.8013 36.8514C22.4839 38.0303 23.1908 39.1851 23.9166 40.3111ZM33.7961 48.4769C32.4318 47.0053 31.0713 45.3772 29.7426 43.6261C31.0326 43.6767 32.3476 43.7024 33.6842 43.7024C35.0574 43.7024 36.4147 43.6717 37.7508 43.6122C36.4389 45.3948 35.1145 47.0253 33.7961 48.4769ZM47.5324 33.2619C48.4329 35.3145 49.1918 37.3001 49.7945 39.1882C47.8413 39.634 45.7324 39.993 43.5103 40.2595C44.2223 39.1307 44.9118 37.9879 45.5784 36.8317C46.2561 35.6564 46.9076 34.4662 47.5324 33.2619ZM43.0855 35.3938C42.0651 37.1665 40.9872 38.9056 39.8537 40.6082C37.8004 40.7537 35.7426 40.8259 33.6842 40.8248C31.5876 40.8248 29.5484 40.7595 27.5847 40.6322C26.4216 38.9334 25.3232 37.1913 24.2918 35.4095H24.2921C23.2656 33.6372 22.3067 31.8265 21.4176 29.9814C22.3045 28.1358 23.2604 26.3243 24.2834 24.5506L24.2832 24.5509C25.3058 22.7767 26.3954 21.042 27.5497 19.3506C29.5532 19.199 31.6076 19.1201 33.6839 19.1201H33.6842C35.77 19.1201 37.8271 19.1998 39.83 19.3524C40.9727 21.0414 42.0553 22.7701 43.0761 24.5353C44.1025 26.3051 45.0711 28.1078 45.9803 29.9406C45.0804 31.7921 44.1149 33.611 43.0855 35.3938ZM49.0224 3.25587C51.2782 4.55692 52.1555 9.8035 50.7382 16.6838C50.6476 17.1227 50.5461 17.5698 50.4355 18.0232C47.6403 17.378 44.6053 16.8982 41.4276 16.6001C39.5766 13.964 37.6584 11.5674 35.7329 9.49271C36.2375 9.00626 36.7542 8.53243 37.2824 8.07166C42.2561 3.7435 46.9045 2.03455 49.0224 3.25587ZM33.6842 23.8969C37.0066 23.8969 39.7 26.5903 39.7 29.9127C39.7 33.2351 37.0066 35.9285 33.6842 35.9285C30.3618 35.9285 27.6684 33.2351 27.6684 29.9127C27.6684 26.5903 30.3618 23.8969 33.6842 23.8969Z" fill="#00D8FF"/>
</g>
<defs>
<clipPath id="clip0">
<rect width="67.3684" height="60" fill="white"/>
</clipPath>
</defs>
</svg>
